<svg width="167" height="50" viewBox="0 0 167 50" fill="none" xmlns="http://www.w3.org/2000/svg">
<rect width="167" height="50" rx="25" fill="white"/>
<path fill-rule="evenodd" clip-rule="evenodd" d="M82.2104 17.9978H81.2704V10.7578H82.2104V17.9978ZM54.9004 17.9963H57.3604C58.3137 17.9963 59.1171 17.6846 59.7704 17.0613C60.4237 16.4379 60.7504 15.5729 60.7504 14.4662C60.7504 13.3529 60.4271 12.4813 59.7804 11.8512C59.1337 11.2212 58.3337 10.9062 57.3804 10.9062H54.9004V17.9963ZM57.3309 17.1273H55.8809V11.7773H57.3509C58.0442 11.7773 58.6159 12.0107 59.0659 12.4773C59.5159 12.944 59.7409 13.6073 59.7409 14.4673C59.7409 15.3207 59.5125 15.9773 59.0559 16.4373C58.5992 16.8973 58.0242 17.1273 57.3309 17.1273ZM62.9905 16.855C63.2839 17.155 63.6405 17.305 64.0605 17.305C64.4805 17.305 64.8355 17.1533 65.1255 16.85C65.4155 16.5467 65.5605 16.125 65.5605 15.585C65.5605 15.0517 65.4155 14.6333 65.1255 14.33C64.8355 14.0267 64.4805 13.875 64.0605 13.875C63.6405 13.875 63.2855 14.0267 62.9955 14.33C62.7055 14.6333 62.5605 15.0517 62.5605 15.585C62.5605 16.125 62.7039 16.5483 62.9905 16.855ZM64.0596 13.0391C63.3463 13.0391 62.7563 13.2824 62.2896 13.7691C61.8296 14.2491 61.5996 14.8557 61.5996 15.5891C61.5996 16.3291 61.8296 16.9407 62.2896 17.4241C62.7496 17.9074 63.3396 18.1491 64.0596 18.1491C64.7796 18.1491 65.3696 17.9074 65.8296 17.4241C66.2896 16.9407 66.5196 16.3291 66.5196 15.5891C66.5196 14.8557 66.2879 14.2474 65.8246 13.7641C65.3613 13.2807 64.7729 13.0391 64.0596 13.0391ZM70.4303 13.1875H71.4003L72.6503 16.8075L73.7103 13.1875H74.7003L73.1403 17.9975H72.1703L70.8903 14.3375L69.6403 17.9975H68.6503L67.0703 13.1875H68.1003L69.1803 16.8075L70.4303 13.1875ZM76.5904 17.9969V15.2169C76.5904 14.8369 76.6887 14.5219 76.8854 14.2719C77.0821 14.0219 77.3571 13.8969 77.7104 13.8969C78.4571 13.8969 78.8304 14.3002 78.8304 15.1069V17.9969H79.7704V14.9469C79.7704 14.3869 79.6221 13.9302 79.3254 13.5769C79.0287 13.2235 78.6037 13.0469 78.0504 13.0469C77.3837 13.0469 76.8904 13.3235 76.5704 13.8769V13.1869H75.6504V17.9969H76.5904ZM85.8711 17.305C85.4511 17.305 85.0944 17.155 84.8011 16.855C84.5144 16.5483 84.3711 16.125 84.3711 15.585C84.3711 15.0517 84.5161 14.6333 84.8061 14.33C85.0961 14.0267 85.4511 13.875 85.8711 13.875C86.2911 13.875 86.6461 14.0267 86.9361 14.33C87.2261 14.6333 87.3711 15.0517 87.3711 15.585C87.3711 16.125 87.2261 16.5467 86.9361 16.85C86.6461 17.1533 86.2911 17.305 85.8711 17.305ZM84.1002 13.7691C84.5668 13.2824 85.1568 13.0391 85.8702 13.0391C86.5835 13.0391 87.1718 13.2807 87.6352 13.7641C88.0985 14.2474 88.3302 14.8557 88.3302 15.5891C88.3302 16.3291 88.1002 16.9407 87.6402 17.4241C87.1802 17.9074 86.5902 18.1491 85.8702 18.1491C85.1502 18.1491 84.5602 17.9074 84.1002 17.4241C83.6402 16.9407 83.4102 16.3291 83.4102 15.5891C83.4102 14.8557 83.6402 14.2491 84.1002 13.7691ZM89.6305 15.7141C89.3638 15.9641 89.2305 16.2957 89.2305 16.7091C89.2305 17.1024 89.3805 17.4407 89.6805 17.7241C89.9805 18.0074 90.3671 18.1491 90.8405 18.1491C91.2271 18.1491 91.5488 18.0691 91.8055 17.9091C92.0621 17.7491 92.2571 17.5624 92.3905 17.3491C92.3905 17.5824 92.4071 17.7991 92.4405 17.9991H93.3605C93.3205 17.7591 93.3005 17.4957 93.3005 17.2091V14.7991C93.3005 14.2857 93.1371 13.8641 92.8105 13.5341C92.4838 13.2041 91.9805 13.0391 91.3005 13.0391C90.7805 13.0391 90.3338 13.1841 89.9605 13.4741C89.5871 13.7641 89.3771 14.1391 89.3305 14.5991L90.2305 14.8091C90.2638 14.5157 90.3738 14.2807 90.5605 14.1041C90.7471 13.9274 91.0005 13.8391 91.3205 13.8391C91.6671 13.8391 91.9271 13.9191 92.1005 14.0791C92.2738 14.2391 92.3605 14.4457 92.3605 14.6991C92.3605 14.9057 92.2371 15.0257 91.9905 15.0591L90.6905 15.2491C90.2505 15.3091 89.8971 15.4641 89.6305 15.7141ZM90.9695 17.3587C91.3895 17.3587 91.7261 17.2454 91.9795 17.0188C92.2328 16.7921 92.3595 16.4321 92.3595 15.9387V15.7188L90.8895 15.9387C90.6761 15.9721 90.5061 16.0487 90.3795 16.1687C90.2528 16.2888 90.1895 16.4521 90.1895 16.6588C90.1895 16.8454 90.2611 17.0087 90.4045 17.1487C90.5478 17.2888 90.7361 17.3587 90.9695 17.3587ZM95.6953 16.8206C95.4453 16.5006 95.3203 16.0873 95.3203 15.5806C95.3203 15.0806 95.4503 14.674 95.7103 14.3606C95.9703 14.0473 96.3136 13.8906 96.7403 13.8906C97.167 13.8906 97.5036 14.044 97.7503 14.3506C97.997 14.6573 98.1203 15.0606 98.1203 15.5606C98.1203 16.0673 97.9936 16.484 97.7403 16.8106C97.487 17.1373 97.1503 17.3006 96.7303 17.3006C96.2903 17.3006 95.9453 17.1406 95.6953 16.8206ZM98.1345 17.5272L98.1313 17.2678C98.0047 17.5145 97.813 17.7195 97.5563 17.8828C97.2997 18.0461 96.9947 18.1278 96.6413 18.1278C95.9547 18.1278 95.403 17.8861 94.9863 17.4028C94.5697 16.9195 94.3613 16.3111 94.3613 15.5778C94.3613 14.8778 94.5747 14.2828 95.0013 13.7928C95.428 13.3028 95.9747 13.0578 96.6413 13.0578C97.0347 13.0578 97.3547 13.1361 97.6013 13.2928C97.848 13.4495 98.018 13.6411 98.1113 13.8678V10.7578H99.0413V17.1078C99.0413 17.4345 99.058 17.7311 99.0913 17.9978H98.1813C98.1563 17.8578 98.1407 17.7009 98.1345 17.5272ZM105.201 17.305C104.781 17.305 104.425 17.155 104.131 16.855C103.845 16.5483 103.701 16.125 103.701 15.585C103.701 15.0517 103.846 14.6333 104.136 14.33C104.426 14.0267 104.781 13.875 105.201 13.875C105.621 13.875 105.976 14.0267 106.266 14.33C106.556 14.6333 106.701 15.0517 106.701 15.585C106.701 16.125 106.556 16.5467 106.266 16.85C105.976 17.1533 105.621 17.305 105.201 17.305ZM103.43 13.7691C103.897 13.2824 104.487 13.0391 105.2 13.0391C105.914 13.0391 106.502 13.2807 106.965 13.7641C107.429 14.2474 107.66 14.8557 107.66 15.5891C107.66 16.3291 107.43 16.9407 106.97 17.4241C106.51 17.9074 105.92 18.1491 105.2 18.1491C104.48 18.1491 103.89 17.9074 103.43 17.4241C102.97 16.9407 102.74 16.3291 102.74 15.5891C102.74 14.8557 102.97 14.2491 103.43 13.7691ZM109.801 17.9969V15.2169C109.801 14.8369 109.9 14.5219 110.096 14.2719C110.293 14.0219 110.568 13.8969 110.921 13.8969C111.668 13.8969 112.041 14.3002 112.041 15.1069V17.9969H112.981V14.9469C112.981 14.3869 112.833 13.9302 112.536 13.5769C112.24 13.2235 111.815 13.0469 111.261 13.0469C110.595 13.0469 110.101 13.3235 109.781 13.8769V13.1869H108.861V17.9969H109.801ZM118.241 11.668V13.188H119.281V14.038H118.241V16.538C118.241 16.7646 118.293 16.9313 118.396 17.038C118.499 17.1446 118.671 17.198 118.911 17.198C119.051 17.198 119.174 17.1846 119.281 17.158V17.958C119.121 18.018 118.908 18.048 118.641 18.048C118.228 18.048 117.901 17.928 117.661 17.688C117.421 17.448 117.301 17.1113 117.301 16.678V14.038H116.381V13.188H116.641C116.888 13.188 117.073 13.1196 117.196 12.983C117.319 12.8463 117.381 12.668 117.381 12.448V11.668H118.241ZM121.471 17.9978V15.1678C121.485 14.7945 121.588 14.4895 121.781 14.2528C121.975 14.0161 122.245 13.8978 122.591 13.8978C123.338 13.8978 123.711 14.3011 123.711 15.1078V17.9978H124.651V14.9478C124.651 14.3878 124.503 13.9311 124.206 13.5778C123.91 13.2245 123.485 13.0478 122.931 13.0478C122.278 13.0478 121.791 13.2811 121.471 13.7478V10.7578H120.531V17.9978H121.471ZM126.76 15.0972H129.39C129.376 14.7372 129.256 14.4422 129.03 14.2122C128.803 13.9822 128.483 13.8672 128.07 13.8672C127.696 13.8672 127.39 13.9889 127.15 14.2322C126.91 14.4755 126.78 14.7639 126.76 15.0972ZM130.34 16.6291L129.53 16.3491C129.316 16.9957 128.866 17.3191 128.18 17.3191C127.773 17.3191 127.431 17.1824 127.155 16.9091C126.878 16.6357 126.736 16.2857 126.73 15.8591H130.35C130.363 15.7791 130.37 15.6791 130.37 15.5591C130.37 14.7924 130.166 14.1807 129.76 13.7241C129.353 13.2674 128.786 13.0391 128.06 13.0391C127.433 13.0391 126.893 13.2791 126.44 13.7591C125.986 14.2391 125.76 14.8457 125.76 15.5791C125.76 16.3657 125.995 16.9907 126.465 17.4541C126.935 17.9174 127.506 18.1491 128.18 18.1491C128.72 18.1491 129.18 18.0074 129.56 17.7241C129.94 17.4407 130.2 17.0757 130.34 16.6291Z" fill="#1F1F1F"/>
<path fill-rule="evenodd" clip-rule="evenodd" d="M63.1202 36.9963H65.2162L60.8002 25.6523H58.5762L54.1602 36.9963H56.1922L57.2482 34.1483H62.0482L63.1202 36.9963ZM59.6479 27.7344L61.3759 32.3744H57.9199L59.6479 27.7344ZM68.4162 40.0393V36.1192C68.8162 36.7113 69.6642 37.1912 70.7842 37.1912C73.0242 37.1912 74.4482 35.4312 74.4482 33.0953C74.4482 30.7913 73.1522 29.0312 70.8482 29.0312C69.6482 29.0312 68.7522 29.5912 68.3682 30.2632V29.2073H66.5762V40.0393H68.4162ZM72.5924 33.0957C72.5924 34.5837 71.7284 35.5437 70.4964 35.5437C69.2804 35.5437 68.4004 34.5837 68.4004 33.0957C68.4004 31.6397 69.2804 30.6797 70.4964 30.6797C71.7444 30.6797 72.5924 31.6397 72.5924 33.0957ZM78.0802 40.0393V36.1192C78.4802 36.7113 79.3282 37.1912 80.4482 37.1912C82.6882 37.1912 84.1122 35.4312 84.1122 33.0953C84.1122 30.7913 82.8162 29.0312 80.5122 29.0312C79.3122 29.0312 78.4162 29.5912 78.0322 30.2632V29.2073H76.2402V40.0393H78.0802ZM82.2565 33.0957C82.2565 34.5837 81.3925 35.5437 80.1605 35.5437C78.9445 35.5437 78.0645 34.5837 78.0645 33.0957C78.0645 31.6397 78.9445 30.6797 80.1605 30.6797C81.4085 30.6797 82.2565 31.6397 82.2565 33.0957ZM97.4888 28.3101C97.2328 27.0461 96.1928 25.4141 93.5208 25.4141C91.4088 25.4141 89.6648 26.9821 89.6648 28.8861C89.6648 30.5821 90.8168 31.7181 92.5448 32.0701L94.1448 32.4061C95.1208 32.6141 95.6648 33.2061 95.6648 33.9421C95.6648 34.8221 94.9608 35.5101 93.6008 35.5101C91.9688 35.5101 91.1208 34.4221 91.0088 33.2381L89.2168 33.7501C89.3928 35.3821 90.7208 37.2381 93.6008 37.2381C96.1928 37.2381 97.6168 35.5581 97.6168 33.7981C97.6168 32.1981 96.5448 30.9341 94.5448 30.5341L92.9128 30.1981C92.0328 30.0061 91.5848 29.4621 91.5848 28.7421C91.5848 27.8781 92.3848 27.1101 93.5368 27.1101C95.0568 27.1101 95.6488 28.1501 95.7608 28.8541L97.4888 28.3101ZM101.807 26.8203H100.127V27.9883C100.127 28.6763 99.7593 29.2043 98.9273 29.2043H98.5273V30.8523H99.9673V34.7723C99.9673 36.2283 100.863 37.0923 102.303 37.0923C102.975 37.0923 103.327 36.9643 103.439 36.9163V35.3803L103.234 35.4122C103.108 35.4286 102.946 35.4443 102.799 35.4443C102.111 35.4443 101.807 35.1563 101.807 34.4683V30.8523H103.423V29.2043H101.807V26.8203ZM108.721 35.5764C107.585 35.5764 106.545 34.7124 106.545 33.0964C106.545 31.4804 107.585 30.6484 108.721 30.6484C109.873 30.6484 110.897 31.4804 110.897 33.0964C110.897 34.7284 109.873 35.5764 108.721 35.5764ZM108.72 28.9688C106.4 28.9688 104.688 30.7127 104.688 33.0967C104.688 35.4967 106.4 37.2408 108.72 37.2408C111.056 37.2408 112.768 35.4967 112.768 33.0967C112.768 30.7127 111.056 28.9688 108.72 28.9688ZM119.121 29.1574C119.041 29.1414 118.849 29.1094 118.625 29.1094C117.601 29.1094 116.737 29.6054 116.369 30.4534V29.2054H114.561V36.9974H116.417V33.2854C116.417 31.8294 117.073 30.9974 118.513 30.9974C118.705 30.9974 118.913 31.0134 119.121 31.0454V29.1574ZM121.936 32.2436C122 31.4116 122.672 30.5156 123.84 30.5156C125.12 30.5156 125.728 31.3316 125.76 32.2436H121.936ZM125.967 34.2808L127.535 34.7768C127.119 36.1368 125.887 37.2408 124.015 37.2408C121.903 37.2408 120.031 35.7048 120.031 33.0648C120.031 30.6007 121.855 28.9688 123.823 28.9688C126.223 28.9688 127.631 30.5527 127.631 33.0167C127.631 33.3207 127.599 33.5767 127.583 33.6087H121.887C121.935 34.7927 122.863 35.6407 124.015 35.6407C125.135 35.6407 125.711 35.0487 125.967 34.2808Z" fill="#1F1F1F"/>
<path fill-rule="evenodd" clip-rule="evenodd" d="M31.3943 14.5376C32.2635 13.6005 32.8516 12.2986 32.6911 11C31.4376 11.0451 29.919 11.7405 29.0209 12.6773C28.2138 13.5075 27.5084 14.8334 27.6968 16.1059C29.096 16.2022 30.5233 15.4737 31.3943 14.5376ZM34.0616 23.4992C34.0346 20.5884 36.3495 19.1916 36.4534 19.1229C35.1524 17.1474 33.125 16.8767 32.4037 16.8465C30.6791 16.6641 29.0385 17.8992 28.1625 17.8992C27.2897 17.8992 25.9395 16.8709 24.5086 16.8981C22.628 16.929 20.8947 18.0321 19.9278 19.7806C17.974 23.2972 19.4266 28.5081 21.3313 31.3601C22.2618 32.7568 23.3706 34.3233 24.8264 34.2662C26.2303 34.2103 26.7604 33.3251 28.4561 33.3251C30.1509 33.3251 30.6278 34.2662 32.1111 34.2379C33.6204 34.2103 34.5769 32.8146 35.5009 31.4142C36.5685 29.7955 37.008 28.2272 37.0347 28.1477C37.0008 28.1302 34.0923 26.9762 34.0616 23.4992Z" fill="#1F1F1F"/>
</svg>
