<svg width="72" height="72" viewBox="0 0 72 72" fill="none" xmlns="http://www.w3.org/2000/svg">
<g clip-path="url(#clip0_413_25365)">
<path d="M0 36C0 16.1178 16.1178 0 36 0C55.8823 0 72 16.1178 72 36C72 55.8823 55.8823 72 36 72C16.1178 72 0 55.8823 0 36Z" fill="#FBEBE8"/>
<g clip-path="url(#clip1_413_25365)">
<path d="M35.9909 24.2182C29.0159 18.1176 20.1472 23.4778 20.0018 30.7444C19.9647 32.5964 20.4993 34.4003 21.5634 36.0633H28.4607L29.6874 34.0186C30.0437 33.425 30.9057 33.4059 31.2821 33.9977L33.8705 38.0651L37.6435 30.1C37.9726 29.405 38.9532 29.3829 39.3161 30.0569L42.5503 36.0633H50.4184C56.2468 26.954 44.7279 16.5766 35.9909 24.2182Z" fill="#E74040"/>
<path d="M41.1656 37.4456L38.5448 32.5784L34.8387 40.4021C34.5234 41.0678 33.5961 41.1256 33.2007 40.5041L30.5152 36.2843L29.7957 37.4834C29.6263 37.7658 29.3212 37.9385 28.9919 37.9385H23.0469C23.2332 38.1336 22.24 37.1423 35.3302 50.1647C35.6958 50.5285 36.2868 50.5286 36.6525 50.1647C49.5412 37.3427 48.7498 38.1332 48.9358 37.9385H41.9909C41.646 37.9386 41.329 37.7492 41.1656 37.4456Z" fill="#E74040"/>
</g>
</g>
<defs>
<clipPath id="clip0_413_25365">
<path d="M0 36C0 16.1178 16.1178 0 36 0C55.8823 0 72 16.1178 72 36C72 55.8823 55.8823 72 36 72C16.1178 72 0 55.8823 0 36Z" fill="white"/>
</clipPath>
<clipPath id="clip1_413_25365">
<rect width="32" height="32" fill="white" transform="translate(20 20)"/>
</clipPath>
</defs>
</svg>
