<svg width="167" height="50" viewBox="0 0 167 50" fill="none" xmlns="http://www.w3.org/2000/svg">
<rect width="167" height="50" rx="25" fill="black"/>
<path fill-rule="evenodd" clip-rule="evenodd" d="M73.7092 12.3675C73.7092 12.5542 73.7726 12.7142 73.8992 12.8475C74.0326 12.9742 74.1926 13.0375 74.3792 13.0375C74.5659 13.0375 74.7259 12.9725 74.8592 12.8425C74.9926 12.7125 75.0592 12.5542 75.0592 12.3675C75.0592 12.1742 74.9926 12.0125 74.8592 11.8825C74.7259 11.7525 74.5659 11.6875 74.3792 11.6875C74.1926 11.6875 74.0342 11.7542 73.9042 11.8875C73.7742 12.0208 73.7092 12.1808 73.7092 12.3675ZM60.2492 18.9978H61.0392V15.5278H57.6492V16.4078H60.1092C60.0959 16.6078 60.0476 16.8078 59.9642 17.0078C59.8809 17.2078 59.7576 17.4061 59.5942 17.6028C59.4309 17.7995 59.2042 17.9578 58.9142 18.0778C58.6242 18.1978 58.2926 18.2578 57.9192 18.2578C57.2392 18.2578 56.6576 18.0128 56.1742 17.5228C55.6909 17.0328 55.4492 16.3412 55.4492 15.4478C55.4492 14.5611 55.6959 13.8745 56.1892 13.3878C56.6826 12.9011 57.2725 12.6578 57.9592 12.6578C58.5059 12.6578 58.9776 12.7995 59.3742 13.0828C59.7709 13.3661 60.0492 13.7645 60.2092 14.2778L61.0992 13.8978C60.8926 13.2511 60.5076 12.7328 59.9442 12.3428C59.3809 11.9528 58.7192 11.7578 57.9592 11.7578C57.3592 11.7578 56.7976 11.8945 56.2742 12.1678C55.7509 12.4411 55.3159 12.8645 54.9692 13.4378C54.6226 14.0111 54.4492 14.6811 54.4492 15.4478C54.4492 16.2145 54.6142 16.8845 54.9442 17.4578C55.2742 18.0311 55.6959 18.4561 56.2092 18.7328C56.7226 19.0095 57.2825 19.1478 57.8892 19.1478C58.4426 19.1478 58.9159 19.0345 59.3092 18.8078C59.7026 18.5811 59.9859 18.3111 60.1592 17.9978L60.2492 18.9978ZM65.6886 16.0972H63.0586C63.0786 15.7639 63.2086 15.4755 63.4486 15.2322C63.6886 14.9889 63.9953 14.8672 64.3686 14.8672C64.7819 14.8672 65.1019 14.9822 65.3286 15.2122C65.5553 15.4422 65.6753 15.7372 65.6886 16.0972ZM65.8286 17.3491L66.6386 17.6291C66.4986 18.0757 66.2386 18.4407 65.8586 18.7241C65.4786 19.0074 65.0186 19.1491 64.4786 19.1491C63.8053 19.1491 63.2336 18.9174 62.7636 18.4541C62.2936 17.9907 62.0586 17.3657 62.0586 16.5791C62.0586 15.8457 62.2853 15.2391 62.7386 14.7591C63.1919 14.2791 63.7319 14.0391 64.3586 14.0391C65.0853 14.0391 65.6519 14.2674 66.0586 14.7241C66.4653 15.1807 66.6686 15.7924 66.6686 16.5591C66.6686 16.6791 66.6619 16.7791 66.6486 16.8591H63.0286C63.0353 17.2857 63.1769 17.6357 63.4536 17.9091C63.7303 18.1824 64.0719 18.3191 64.4786 18.3191C65.1653 18.3191 65.6153 17.9957 65.8286 17.3491ZM69.1295 14.188V12.668H68.2695V13.448C68.2695 13.668 68.2079 13.8463 68.0845 13.983C67.9612 14.1196 67.7762 14.188 67.5295 14.188H67.2695V15.038H68.1895V17.678C68.1895 18.1113 68.3095 18.448 68.5495 18.688C68.7895 18.928 69.1162 19.048 69.5295 19.048C69.7962 19.048 70.0095 19.018 70.1695 18.958V18.158C70.0629 18.1846 69.9395 18.198 69.7995 18.198C69.5595 18.198 69.3879 18.1446 69.2845 18.038C69.1812 17.9313 69.1295 17.7646 69.1295 17.538V15.038H70.1695V14.188H69.1295ZM74.8498 18.9975H73.9198V14.1875H74.8498V18.9975ZM77.7096 12.668V14.188H78.7496V15.038H77.7096V17.538C77.7096 17.7646 77.7613 17.9313 77.8646 18.038C77.9679 18.1446 78.1396 18.198 78.3796 18.198C78.5196 18.198 78.6429 18.1846 78.7496 18.158V18.958C78.5896 19.018 78.3763 19.048 78.1096 19.048C77.6963 19.048 77.3696 18.928 77.1296 18.688C76.8896 18.448 76.7696 18.1113 76.7696 17.678V15.038H75.8496V14.188H76.1096C76.3563 14.188 76.5413 14.1196 76.6646 13.983C76.7879 13.8463 76.8496 13.668 76.8496 13.448V12.668H77.7096ZM84.5586 18.305C84.1386 18.305 83.7819 18.155 83.4886 17.855C83.2019 17.5483 83.0586 17.125 83.0586 16.585C83.0586 16.0517 83.2036 15.6333 83.4936 15.33C83.7836 15.0267 84.1386 14.875 84.5586 14.875C84.9786 14.875 85.3336 15.0267 85.6236 15.33C85.9136 15.6333 86.0586 16.0517 86.0586 16.585C86.0586 17.125 85.9136 17.5467 85.6236 17.85C85.3336 18.1533 84.9786 18.305 84.5586 18.305ZM82.7896 14.7691C83.2563 14.2824 83.8463 14.0391 84.5596 14.0391C85.2729 14.0391 85.8613 14.2807 86.3246 14.7641C86.7879 15.2474 87.0196 15.8557 87.0196 16.5891C87.0196 17.3291 86.7896 17.9407 86.3296 18.4241C85.8696 18.9074 85.2796 19.1491 84.5596 19.1491C83.8396 19.1491 83.2496 18.9074 82.7896 18.4241C82.3296 17.9407 82.0996 17.3291 82.0996 16.5891C82.0996 15.8557 82.3296 15.2491 82.7896 14.7691ZM89.1587 18.9969V16.2169C89.1587 15.8369 89.2571 15.5219 89.4538 15.2719C89.6504 15.0219 89.9254 14.8969 90.2788 14.8969C91.0254 14.8969 91.3988 15.3002 91.3988 16.1069V18.9969H92.3387V15.9469C92.3387 15.3869 92.1904 14.9302 91.8937 14.5769C91.5971 14.2235 91.1721 14.0469 90.6188 14.0469C89.9521 14.0469 89.4588 14.3235 89.1387 14.8769V14.1869H88.2188V18.9969H89.1587Z" fill="white"/>
<path fill-rule="evenodd" clip-rule="evenodd" d="M65.4239 30.2541V35.9981H63.8719L63.7279 34.5581C63.2319 35.3901 62.0639 36.2381 60.2559 36.2381C57.2959 36.2381 54.6719 34.0621 54.6719 30.3181C54.6719 26.5901 57.4399 24.4141 60.3839 24.4141C63.1359 24.4141 64.8959 25.9981 65.5039 27.8701L63.6959 28.5581C63.3119 27.2781 62.1919 26.1901 60.3839 26.1901C58.5439 26.1901 56.6239 27.5021 56.6239 30.3181C56.6239 33.0861 58.4159 34.4781 60.3679 34.4781C62.6559 34.4781 63.5199 32.9101 63.6159 31.9341H59.8719V30.2541H65.4239ZM68.832 32.0964C68.832 33.7124 69.872 34.5764 71.008 34.5764C72.16 34.5764 73.184 33.7284 73.184 32.0964C73.184 30.4804 72.16 29.6484 71.008 29.6484C69.872 29.6484 68.832 30.4804 68.832 32.0964ZM71.0086 27.9688C68.6886 27.9688 66.9766 29.7127 66.9766 32.0967C66.9766 34.4967 68.6886 36.2408 71.0086 36.2408C73.3446 36.2408 75.0566 34.4967 75.0566 32.0967C75.0566 29.7127 73.3446 27.9688 71.0086 27.9688ZM78.0957 32.0964C78.0957 33.7124 79.1357 34.5764 80.2717 34.5764C81.4237 34.5764 82.4477 33.7284 82.4477 32.0964C82.4477 30.4804 81.4237 29.6484 80.2717 29.6484C79.1357 29.6484 78.0957 30.4804 78.0957 32.0964ZM80.2722 27.9688C77.9522 27.9688 76.2402 29.7127 76.2402 32.0967C76.2402 34.4967 77.9522 36.2408 80.2722 36.2408C82.6082 36.2408 84.3202 34.4967 84.3202 32.0967C84.3202 29.7127 82.6082 27.9688 80.2722 27.9688ZM89.2647 39.2785C87.2007 39.2785 85.7607 37.9985 85.5527 36.4305L87.2647 35.9825C87.3927 36.9425 88.1447 37.6625 89.2167 37.6625C90.6887 37.6625 91.4247 36.9105 91.4247 35.3265V34.5105C91.0887 35.1185 90.3047 35.6465 89.1687 35.6465C87.0887 35.6465 85.5687 34.0465 85.5687 31.8545C85.5687 29.7745 87.0247 28.0625 89.1687 28.0625C90.3847 28.0625 91.1367 28.5585 91.4727 29.1985V28.2065H93.2647V35.2625C93.2647 37.3425 92.1927 39.2785 89.2647 39.2785ZM89.4715 34.0641C88.2555 34.0641 87.4395 33.2161 87.4395 31.8561C87.4395 30.5281 88.2875 29.6641 89.4715 29.6641C90.6235 29.6641 91.4715 30.5281 91.4715 31.8561C91.4715 33.2001 90.6555 34.0641 89.4715 34.0641ZM97.3912 24.4141V35.9981H95.5352V24.4141H97.3912ZM101.088 31.2436C101.152 30.4116 101.824 29.5156 102.992 29.5156C104.272 29.5156 104.88 30.3316 104.912 31.2436H101.088ZM103.168 34.6407C104.288 34.6407 104.864 34.0487 105.12 33.2808L106.688 33.7768C106.272 35.1368 105.04 36.2408 103.168 36.2408C101.056 36.2408 99.1836 34.7048 99.1836 32.0648C99.1836 29.6007 101.008 27.9688 102.976 27.9688C105.376 27.9688 106.784 29.5527 106.784 32.0167C106.784 32.3207 106.752 32.5767 106.736 32.6087H101.04C101.088 33.7927 102.016 34.6407 103.168 34.6407ZM114.607 29.8716V26.3516H116.607C117.823 26.3516 118.559 27.0396 118.559 28.1276C118.559 29.1996 117.823 29.8716 116.607 29.8716H114.607ZM120.511 28.1123C120.511 30.1123 119.072 31.5683 116.896 31.5683H114.607V36.0002H112.688V24.6562H116.896C119.072 24.6562 120.511 26.1283 120.511 28.1123ZM124.016 35.9981V24.4141H122.16V35.9981H124.016ZM128.576 36.2408C126.944 36.2408 125.936 35.1208 125.936 33.8888C125.936 32.4967 126.96 31.7288 128.288 31.5367L130.288 31.2327C130.736 31.1687 130.864 30.9447 130.864 30.6727C130.864 30.0167 130.416 29.4887 129.392 29.4887C128.416 29.4887 127.872 30.1128 127.792 30.8967L126.096 30.5127C126.24 29.1687 127.456 27.9688 129.376 27.9688C131.776 27.9688 132.688 29.3287 132.688 30.8807L132.689 34.9237C132.696 35.3104 132.727 35.6114 132.752 35.7981L132.784 36.0007H131.056C131.04 35.9527 130.976 35.6327 130.976 35.0087C130.608 35.6007 129.84 36.2408 128.576 36.2408ZM128.927 34.7821C128.191 34.7821 127.791 34.3021 127.791 33.7741C127.791 33.1341 128.255 32.8141 128.831 32.7181L130.863 32.4141V32.7661C130.863 34.2861 129.967 34.7821 128.927 34.7821ZM135.311 39.151H137.295L142.255 28.207H140.287L138.191 33.135L135.951 28.207H133.855L137.183 35.071L135.311 39.151Z" fill="white"/>
<path d="M20.0958 14.1289C20.0395 14.3295 20 14.5448 20 14.7915V35.106C20 35.3494 20.038 35.5635 20.0932 35.7615L31.4206 24.9597L20.0958 14.1289Z" fill="#48A0DC"/>
<path d="M22.6168 13.3403C22.0895 13.0167 21.5697 12.9357 21.1309 13.0474L32.5056 23.9262L35.8421 20.7451L22.6168 13.3403Z" fill="#88C057"/>
<path d="M40.7182 23.4766L37.1877 21.5L33.5723 24.9478L37.2556 28.4713L40.6909 26.5726C42.3663 25.6115 41.7544 24.0627 40.7182 23.4766Z" fill="#FFCC66"/>
<path d="M32.4866 25.9805L21.0977 36.8397C21.5432 36.9653 22.075 36.8907 22.6157 36.5588L35.8824 29.228L32.4866 25.9805Z" fill="#ED7161"/>
</svg>
