<svg width="193" height="61" viewBox="0 0 193 61" fill="none" xmlns="http://www.w3.org/2000/svg">
<path d="M59.276 22.3559C58.8708 20.2946 58.1878 18.2761 57.25 16.3586C53.4835 8.67345 46.0047 3.0379 36.7313 0.894907C27.1492 -1.31809 17.2584 0.630436 10.2658 6.10653C6.28319 9.22573 3.1612 13.4806 1.47093 18.0855C-0.381431 23.1299 -0.485626 28.3493 1.16606 33.1759C3.41204 39.7448 8.55233 45.1315 15.2671 47.959C19.3076 49.6586 23.6027 50.277 27.7165 49.8219C28.4189 49.7442 29.1135 49.6353 29.8043 49.4952C31.3518 49.153 32.8722 48.6785 34.3387 48.064C38.9078 46.1582 42.9328 42.9496 45.6303 38.543C49.91 31.5463 50.5892 20.3646 43.1451 15.2502C38.9233 12.3527 33.9605 12.73 29.9625 15.8141C28.442 14.6357 26.5665 13.6245 24.6447 13.3484C14.2753 11.8588 7.93488 24.7206 12.9825 33.3198C15.3675 37.384 20.1874 40.1182 24.8068 40.5771C26.2346 40.7172 27.9905 40.3943 29.2061 39.6009C30.769 38.5742 31.016 36.1511 29.0132 35.3383C27.8284 34.856 26.4237 35.4239 25.1811 35.2838C24.0427 35.1555 22.9158 34.7471 21.9125 34.2065C19.7089 33.0164 17.818 30.9706 17.0809 28.536C15.271 22.5815 20.8281 15.6547 26.7054 19.894C27.7204 20.6252 28.77 22.352 30.2635 22.1887C31.645 22.0331 32.795 20.3101 33.9142 19.579C38.8345 16.347 42.9714 21.3603 43.4075 26.1324C44.1716 34.5099 37.8466 41.4406 30.2905 43.9258C26.1767 45.1548 21.5729 44.8709 17.3009 43.0741C11.9715 40.8299 7.90401 36.5945 6.14813 31.4568C3.28083 23.0715 7.77666 14.7874 13.5035 10.2992C19.2574 5.7915 27.5043 4.20857 35.562 6.07153C43.2879 7.8567 49.474 12.4655 52.5419 18.7155C53.2752 20.2129 53.8077 21.7881 54.1242 23.3904C55.6716 31.2818 52.4069 40.4449 45.804 46.73C45.0823 47.4184 44.8045 48.4568 45.0901 49.4174L46.8382 55.3019C44.7698 54.8858 42.2575 54.034 40.5479 52.2838C39.6256 51.3426 38.1785 51.2143 37.1288 51.9999C37.0014 52.0933 34.5934 53.7657 30.634 54.6952C25.2544 55.9592 19.6742 55.3291 14.0399 52.8245C12.7086 52.2333 11.1572 52.84 10.5706 54.1818C9.98405 55.5236 10.5861 57.0871 11.9174 57.6783C20.392 61.447 27.5776 60.9102 32.1158 59.794C34.8674 59.1173 37.0169 58.1489 38.41 57.3982C43.1297 60.8714 49.501 60.9997 50.431 60.9997H50.5352C51.3611 60.988 52.129 60.5874 52.6191 59.9146C53.1054 59.2456 53.252 58.3822 53.0166 57.5888L50.5931 49.4213C53.7614 46.0921 56.2582 42.1056 57.8559 37.808C59.77 32.6547 60.2678 27.3147 59.2953 22.3637L59.276 22.3559Z" fill="url(#paint0_radial_413_25279)"/>
<g clip-path="url(#clip0_413_25279)">
<path d="M78.887 25.5362C79.1279 25.2988 79.2878 24.931 79.2878 24.5633C79.2878 24.1956 79.1279 23.8257 78.887 23.5904C78.6482 23.3277 78.2217 23.2227 77.8998 23.2227C77.1514 23.2227 76.5117 23.8278 76.5117 24.5654C76.5117 25.303 77.177 25.9859 77.8998 25.9859C78.2196 25.9859 78.6482 25.8031 78.887 25.5383V25.5362Z" fill="#E53A35"/>
<path d="M74.5912 25.982C74.911 25.982 75.3396 25.7992 75.5805 25.5344C75.8193 25.297 75.9813 24.9292 75.9813 24.5615C75.9813 24.1938 75.8193 23.8239 75.5805 23.5886C75.3374 23.3238 74.911 23.2188 74.5912 23.2188C73.8428 23.2188 73.2031 23.8239 73.2031 24.5615C73.2031 25.2991 73.8705 25.982 74.5912 25.982Z" fill="#E53A35"/>
<path d="M121.697 34.7681C121.964 35.1358 122.721 36.5899 125.181 36.861C126.249 37.0879 127.348 37.172 128.439 37.1405C130.49 37.0816 132.819 36.7895 134.578 35.6863C136.917 34.2196 137.379 31.0487 134.682 29.023C133.428 28.0816 131.64 28.0606 130.098 28.5229C128.757 28.9243 127.687 29.8804 126.983 31.0529C126.759 31.4269 126.535 31.8451 126.352 32.257C126.194 32.6121 125.482 34.3688 125.482 34.3688C125.482 34.3688 124.051 34.9698 124.077 32.3578C124.073 32.0679 124.087 31.2462 124.087 31.2462H121.684L121.661 32.713C111.333 37.4872 101.898 37.4641 94.0196 33.5619C93.5675 33.3791 93.2179 33.1668 92.9535 32.9567C92.935 32.9385 92.9172 32.921 92.9002 32.9042H93.22H94.7147C94.7083 32.2864 94.9172 30.557 94.9172 30.557L93.2626 30.0064C93.2626 30.0064 89.8554 28.918 88.0943 28.4998C84.7148 27.737 82.8278 30.6873 82.8278 30.6873C82.8278 30.6873 83.9792 32.0531 84.3523 32.4797C85.5399 31.345 87.5292 31.1328 88.9343 31.9943C87.4098 33.1942 85.4482 33.8435 83.4994 33.7951C82.9941 33.7825 82.4653 33.7153 82.0517 33.4274C81.1562 33.0156 81.3118 30.7335 81.3118 30.7335L81.3203 27.0352L78.8364 27.0625L78.8321 28.6742C77.4505 28.8171 76.0006 29.1176 74.8982 30.0085C73.6189 31.0424 72.9921 32.8622 73.7725 34.3709C74.7788 36.3167 77.8939 36.4428 78.9686 34.5138C79.2159 35.6611 80.2116 36.5647 81.3481 36.9093C85.4674 38.3067 90.8959 33.4022 90.8959 33.4022C90.8959 33.4022 90.9023 34.1188 90.8959 34.7723C101.727 42.129 117.403 38.1722 121.699 34.7702L121.697 34.7681ZM131.335 31.2252C133.68 31.055 134.655 32.8348 134.631 32.8474C132.627 34.1377 128.303 34.3205 127.859 34.1545C127.693 34.0914 128.859 31.3618 131.337 31.2252H131.335ZM78.7809 32.5301C78.7234 32.6457 78.6487 32.7508 78.5507 32.8369C77.8492 33.4631 76.0624 33.377 75.5699 32.5217C74.9366 31.4269 77.2927 30.7545 78.0048 30.765C78.1562 30.7671 78.3076 30.7881 78.4483 30.8449C78.8854 31.0235 78.9387 31.6455 78.9089 32.0447C78.8961 32.2107 78.8556 32.3788 78.7809 32.528V32.5301Z" fill="#E53A35"/>
<path d="M145.82 40.375C145.073 40.375 144.432 40.9802 144.432 41.7178C144.432 42.4553 145.099 43.1383 145.82 43.1383C146.14 43.1383 146.568 42.9554 146.809 42.6907C147.048 42.4532 147.21 42.0855 147.21 41.7178C147.21 41.35 147.048 40.9802 146.809 40.7448C146.568 40.4822 146.142 40.3771 145.82 40.3771V40.375Z" fill="#E53A35"/>
<path d="M149.132 40.375C148.384 40.375 147.744 40.9802 147.744 41.7178C147.744 42.4553 148.409 43.1383 149.132 43.1383C149.452 43.1383 149.881 42.9554 150.119 42.6907C150.36 42.4532 150.52 42.0855 150.52 41.7178C150.52 41.35 150.36 40.9802 150.119 40.7448C149.881 40.4822 149.454 40.3771 149.132 40.3771V40.375Z" fill="#E53A35"/>
<path d="M155.794 31.4573C155.867 31.2661 155.698 30.2218 155.715 30.0242C155.769 29.4022 155.041 28.3579 155.137 27.7422C154.517 30.3583 152.954 31.0119 151.412 31.1442C149.046 30.9404 147.677 30.3079 147.677 30.3079C147.677 30.3079 147.304 32.1193 147.118 33.0249C148.801 33.3485 150.483 33.6743 152.165 33.9979C152.054 33.9768 151.404 34.6325 151.27 34.7354C150.89 35.0275 150.496 35.3028 150.082 35.5486C149.28 36.0235 148.41 36.385 147.487 36.5426C146.02 36.7926 144.317 36.5825 143.611 35.1095C143.204 34.2626 143.372 33.3128 143.628 32.4492C143.673 32.2979 144.076 30.7114 144.125 30.7219C143.671 30.6231 142.048 30.3562 142.048 30.3562C142.048 30.3562 141.489 32.0016 141.4 32.4029C141.052 33.9453 140.899 35.7294 141.56 37.2129C142.323 38.9276 144.246 39.5958 146.05 39.5748C147.72 39.5559 149.459 38.9906 150.839 38.0681C151.871 37.3789 152.89 36.5153 153.451 35.3952C153.709 34.8825 154.152 33.5209 153.434 32.4387C153.85 32.3252 155.641 31.8671 155.792 31.4594L155.794 31.4573Z" fill="#E53A35"/>
<path d="M190.968 29.1412C190.897 29.0928 189.226 29.2946 188.479 29.387C188.403 29.3975 188.835 32.6567 188.788 32.9572C188.637 33.8986 187.955 34.1655 187.004 34.3063C182.123 35.0333 177.177 35.2371 172.245 35.1657C169.778 35.13 167.313 35.0228 164.851 34.8757C163.147 34.7749 161.413 34.6992 159.757 34.2558C158.921 34.0331 158.085 33.5687 157.727 32.7912C157.501 32.2953 157.495 31.7321 157.49 31.1879C157.477 28.5192 157.467 25.8484 157.454 23.1797C156.599 23.1797 155.742 23.1839 154.887 23.186C154.887 26.3191 154.887 29.4543 154.885 32.5874C154.885 33.5519 154.902 34.5794 155.443 35.3821C156.013 36.2269 157.038 36.6387 158.015 36.9602C159.565 37.4709 161.243 37.66 162.861 37.8386C165.245 38.1034 167.642 38.24 170.038 38.3009C172.673 38.3681 175.313 38.3429 177.944 38.1895C180.298 38.0529 182.665 37.8281 184.974 37.3469C186.294 37.0716 187.616 36.6976 188.797 36.042C189.968 35.3926 191.217 34.3735 191.379 32.9698C191.518 31.772 191.042 29.1937 190.965 29.1412H190.968Z" fill="#E53A35"/>
<path d="M186.678 26.036C186.678 26.7462 187.345 27.4565 188.066 27.4565C188.386 27.4565 188.814 27.2715 189.053 27.0089C189.294 26.7714 189.454 26.4037 189.454 26.036C189.454 25.6682 189.294 25.2984 189.053 25.063C188.814 24.8004 188.386 24.6953 188.066 24.6953C187.317 24.6953 186.678 25.3005 186.678 26.0381V26.036Z" fill="#E53A35"/>
<path d="M191.374 24.6953C190.626 24.6953 189.986 25.3005 189.986 26.0381C189.986 26.7756 190.654 27.4586 191.374 27.4586C191.694 27.4586 192.123 27.2736 192.364 27.011C192.603 26.7735 192.762 26.4058 192.762 26.0381C192.762 25.6703 192.603 25.3005 192.364 25.0651C192.123 24.8025 191.696 24.6974 191.374 24.6974V24.6953Z" fill="#E53A35"/>
<path d="M83.8754 60.2656C83.1504 60.6712 82.1632 60.875 80.9116 60.875C79.2784 60.875 78.0204 60.4863 77.1398 59.7088C76.2592 58.9313 75.8179 57.765 75.8179 56.21V53.2682H74.2188V49.801H75.8179V46.5859H80.6366V49.801H83.0246V53.2682H80.6366V56.168C80.6366 56.5189 80.7283 56.7921 80.9138 56.9875C81.0993 57.183 81.3402 57.2817 81.6387 57.2817C82.0502 57.2817 82.4127 57.1767 82.7261 56.9665L83.8775 60.2656H83.8754Z" fill="#015FA7"/>
<path d="M98.7113 56.0214H90.6112C90.7817 56.4564 91.0653 56.7884 91.464 57.0196C91.8606 57.2507 92.3596 57.3663 92.9566 57.3663C93.4683 57.3663 93.899 57.3032 94.2465 57.1772C94.5941 57.0511 94.9736 56.8346 95.3872 56.5257L97.9032 59.0263C96.7668 60.2598 95.0674 60.8755 92.8073 60.8755C91.4001 60.8755 90.1634 60.6191 89.0995 60.1085C88.0334 59.5979 87.2082 58.8876 86.6261 57.9757C86.0441 57.0658 85.752 56.0424 85.752 54.9077C85.752 53.773 86.0398 52.7328 86.6155 51.8293C87.1912 50.9257 87.9801 50.2217 88.9822 49.7174C89.9843 49.2131 91.1101 48.9609 92.3617 48.9609C93.5408 48.9609 94.6175 49.1921 95.5919 49.6544C96.5642 50.1167 97.3403 50.7954 97.916 51.6927C98.4917 52.5878 98.7795 53.6616 98.7795 54.9077C98.7795 54.9771 98.7582 55.349 98.7156 56.0214H98.7113ZM91.1655 52.5962C90.8393 52.8631 90.6261 53.2414 90.5259 53.731H94.2785C94.1783 53.2561 93.9651 52.8799 93.6389 52.6068C93.3126 52.3336 92.899 52.197 92.4022 52.197C91.9054 52.197 91.4939 52.3294 91.1655 52.5962Z" fill="#015FA7"/>
<path d="M101.887 45.0781H106.705V60.6658H101.887V45.0781Z" fill="#015FA7"/>
<path d="M122.78 56.0214H114.68C114.85 56.4564 115.134 56.7884 115.532 57.0196C115.929 57.2507 116.428 57.3663 117.025 57.3663C117.537 57.3663 117.967 57.3032 118.315 57.1772C118.662 57.0511 119.042 56.8346 119.456 56.5257L121.972 59.0263C120.835 60.2598 119.136 60.8755 116.876 60.8755C115.468 60.8755 114.232 60.6191 113.168 60.1085C112.102 59.5979 111.277 58.8876 110.695 57.9757C110.112 57.0658 109.82 56.0424 109.82 54.9077C109.82 53.773 110.108 52.7328 110.684 51.8293C111.26 50.9257 112.048 50.2217 113.051 49.7174C114.053 49.2131 115.178 48.9609 116.43 48.9609C117.609 48.9609 118.686 49.1921 119.66 49.6544C120.633 50.1167 121.409 50.7954 121.984 51.6927C122.56 52.5878 122.848 53.6616 122.848 54.9077C122.848 54.9771 122.827 55.349 122.784 56.0214H122.78ZM115.234 52.5962C114.908 52.8631 114.694 53.2414 114.594 53.731H118.347C118.247 53.2561 118.033 52.8799 117.707 52.6068C117.381 52.3336 116.967 52.197 116.471 52.197C115.974 52.197 115.562 52.3294 115.234 52.5962Z" fill="#015FA7"/>
<path d="M128.055 60.5931C126.882 60.3199 125.921 59.9522 125.168 59.4899L126.788 55.8756C127.498 56.2812 128.296 56.6069 129.176 56.8527C130.057 57.0986 130.904 57.2205 131.714 57.2205C132.409 57.2205 132.908 57.1532 133.206 57.0208C133.505 56.8884 133.654 56.6888 133.654 56.422C133.654 56.1131 133.458 55.8819 133.068 55.7285C132.677 55.5751 132.034 55.407 131.138 55.2242C129.987 54.9867 129.027 54.7304 128.26 54.4572C127.492 54.184 126.825 53.7364 126.255 53.1123C125.686 52.4883 125.403 51.6456 125.403 50.5802C125.403 49.6557 125.665 48.8151 126.191 48.0586C126.716 47.3022 127.503 46.7075 128.547 46.2725C129.592 45.8396 130.861 45.6211 132.353 45.6211C133.377 45.6211 134.381 45.7304 135.37 45.9468C136.358 46.1653 137.228 46.4826 137.982 46.9029L136.468 50.4962C135.006 49.7691 133.62 49.4035 132.311 49.4035C131.002 49.4035 130.37 49.7124 130.37 50.3281C130.37 50.6223 130.562 50.8429 130.946 50.99C131.33 51.1371 131.963 51.2947 132.844 51.4628C133.98 51.6729 134.94 51.9146 135.722 52.1878C136.503 52.4609 137.183 52.9064 137.758 53.5221C138.334 54.1378 138.622 54.9783 138.622 56.0437C138.622 56.9683 138.358 57.8046 137.833 58.5548C137.306 59.305 136.522 59.8997 135.477 60.3409C134.432 60.7822 133.164 61.0029 131.671 61.0029C130.434 61.0029 129.23 60.8663 128.057 60.5931H128.055Z" fill="#015FA7"/>
<path d="M154.114 56.9257V60.6661H141.707V45.9609H153.837V49.7013H146.654V51.4244H152.963V54.9967H146.654V56.9299H154.114V56.9257Z" fill="#015FA7"/>
<path d="M172.362 45.9609V60.6661H167.332V55.2467H162.686V60.6661H157.656V45.9609H162.686V51.1701H167.332V45.9609H172.362Z" fill="#015FA7"/>
<path d="M186.56 58.1024H180.891L179.889 60.6661H174.773L181.296 45.9609H186.24L192.763 60.6661H187.562L186.56 58.1024ZM185.174 54.5323L183.724 50.8339L182.274 54.5323H185.174Z" fill="#015FA7"/>
</g>
<defs>
<radialGradient id="paint0_radial_413_25279" cx="0" cy="0" r="1" gradientTransform="matrix(20.3997 1.48814 -1.31416 18.2978 29.7194 28.0339)" gradientUnits="userSpaceOnUse">
<stop offset="0.99" stop-color="#E53A35"/>
<stop offset="1" stop-color="#015FA7"/>
</radialGradient>
<clipPath id="clip0_413_25279">
<rect width="119.559" height="37.8198" fill="white" transform="translate(73.2031 23.1797)"/>
</clipPath>
</defs>
</svg>
