<svg width="30" height="30" viewBox="0 0 30 30" fill="none" xmlns="http://www.w3.org/2000/svg">
<path fill-rule="evenodd" clip-rule="evenodd" d="M15 28.5C22.4558 28.5 28.5 22.4558 28.5 15C28.5 7.54418 22.4558 1.5 15 1.5C7.54418 1.5 1.5 7.54418 1.5 15C1.5 22.4558 7.54418 28.5 15 28.5ZM15 30C23.2843 30 30 23.2843 30 15C30 6.71572 23.2843 0 15 0C6.71572 0 0 6.71572 0 15C0 23.2843 6.71572 30 15 30Z" fill="#F9FAFB"/>
<circle cx="14.5" cy="15.5" r="13.5" fill="#007BBD"/>
<path fill-rule="evenodd" clip-rule="evenodd" d="M22.6699 22.9675C16.5018 22.375 12.517 22.319 6.34998 22.9531C5.93475 22.9959 5.61538 23.3251 5.61538 23.7232C5.61538 23.9378 5.71126 24.1414 5.87417 24.2818C9.24023 27.1817 11.7911 28.4915 14.2846 28.4999C16.7865 28.5085 19.4747 27.2087 23.1174 24.2607C23.285 24.125 23.3846 23.9223 23.3846 23.7087C23.3846 23.3248 23.074 23.0064 22.6699 22.9675ZM6.17221 21.4623C12.4688 20.8148 16.57 20.8736 22.8361 21.4756C24.0707 21.5941 25 22.5628 25 23.7087C25 24.3487 24.7041 24.9663 24.1787 25.3915C20.4836 28.382 17.4061 30.0106 14.2787 29.9999C11.1428 29.9893 8.20089 28.3325 4.77547 25.3814C4.27663 24.9516 4 24.3468 4 23.7232C4 22.5707 4.9278 21.5902 6.17221 21.4623Z" fill="#F9FAFB"/>
<path fill-rule="evenodd" clip-rule="evenodd" d="M15 16.5C17.4853 16.5 19.5 14.4853 19.5 12C19.5 9.51472 17.4853 7.5 15 7.5C12.5147 7.5 10.5 9.51472 10.5 12C10.5 14.4853 12.5147 16.5 15 16.5ZM15 18C18.3137 18 21 15.3137 21 12C21 8.68628 18.3137 6 15 6C11.6863 6 9 8.68628 9 12C9 15.3137 11.6863 18 15 18Z" fill="#F9FAFB"/>
</svg>
