<svg width="28" height="28" viewBox="0 0 28 28" fill="none" xmlns="http://www.w3.org/2000/svg">
<path d="M14.0218 0C6.29228 0 0 5.67173 0 12.644C0 19.6162 6.29228 25.288 14.0218 25.288C15.4679 25.2863 16.9069 25.0796 18.2984 24.6738L23.1447 27.8529C23.277 27.9404 23.4297 27.9896 23.5868 27.9953C23.7439 28.0011 23.8996 27.9632 24.0376 27.8856C24.1756 27.8081 24.2908 27.6937 24.3712 27.5544C24.4515 27.4152 24.4941 27.2563 24.4943 27.0943V21.0161C25.5909 19.9321 26.4659 18.6329 27.0679 17.1951C27.6699 15.7573 27.9868 14.2099 27.9998 12.644C28.0436 5.67173 21.7513 0 14.0218 0ZM23.0396 19.9685C22.9515 20.0527 22.8811 20.1547 22.8328 20.2681C22.7846 20.3815 22.7595 20.5039 22.7591 20.6278V25.4506L18.9207 22.9308C18.8136 22.861 18.6931 22.816 18.5675 22.7989C18.442 22.7817 18.3143 22.7928 18.1933 22.8314C16.8426 23.2638 15.4362 23.483 14.0218 23.4817C7.25628 23.4817 1.75272 18.6228 1.75272 12.644C1.75272 6.66519 7.25628 1.80628 14.0218 1.80628C20.7873 1.80628 26.2909 6.66519 26.2909 12.644C26.2709 14.0304 25.9716 15.3974 25.4119 16.6582C24.8522 17.9191 24.0443 19.0464 23.0396 19.9685Z" fill="#007BBD"/>
<path d="M20.1611 11.7422H7.89199C7.65956 11.7422 7.43666 11.8373 7.27231 12.0067C7.10796 12.1761 7.01562 12.4058 7.01562 12.6453C7.01562 12.8849 7.10796 13.1146 7.27231 13.2839C7.43666 13.4533 7.65956 13.5485 7.89199 13.5485H20.1611C20.3935 13.5485 20.6164 13.4533 20.7807 13.2839C20.9451 13.1146 21.0374 12.8849 21.0374 12.6453C21.0374 12.4058 20.9451 12.1761 20.7807 12.0067C20.6164 11.8373 20.3935 11.7422 20.1611 11.7422Z" fill="#007BBD"/>
<path d="M17.3104 16.2578H10.7377C10.5053 16.2578 10.2824 16.353 10.118 16.5223C9.95366 16.6917 9.86133 16.9214 9.86133 17.161C9.86133 17.4005 9.95366 17.6302 10.118 17.7996C10.2824 17.9689 10.5053 18.0641 10.7377 18.0641H17.3104C17.5428 18.0641 17.7657 17.9689 17.9301 17.7996C18.0944 17.6302 18.1868 17.4005 18.1868 17.161C18.1868 16.9214 18.0944 16.6917 17.9301 16.5223C17.7657 16.353 17.5428 16.2578 17.3104 16.2578Z" fill="#007BBD"/>
<path d="M8.13417 9.04066H19.9125C20.1449 9.04066 20.3678 8.94551 20.5322 8.77614C20.6965 8.60676 20.7888 8.37705 20.7888 8.13752C20.7888 7.89799 20.6965 7.66827 20.5322 7.4989C20.3678 7.32953 20.1449 7.23438 19.9125 7.23438H8.13417C7.90175 7.23438 7.67884 7.32953 7.51449 7.4989C7.35014 7.66827 7.25781 7.89799 7.25781 8.13752C7.25781 8.37705 7.35014 8.60676 7.51449 8.77614C7.67884 8.94551 7.90175 9.04066 8.13417 9.04066Z" fill="#007BBD"/>
</svg>
