<svg width="170" height="170" viewBox="0 0 170 170" fill="none" xmlns="http://www.w3.org/2000/svg">
<path d="M70.8354 21.25H85.002V30.6136C89.5081 30.3392 93.8757 30.6015 97.8002 31.43C81.1529 37.9822 73.4937 54.8208 72.2396 57.5783L72.1624 57.7472C68.0945 57.1296 63.6872 56.616 59.5169 56.6543C55.2194 57.0205 51.0498 57.6555 44.1829 61.5234C43.2146 62.2076 41.9092 63.33 40.1351 65.0413C40.0062 64.9485 39.8681 64.8624 39.6875 64.7495C39.543 64.6591 39.3705 64.5518 39.1537 64.4102C38.1731 63.7695 36.7412 62.9025 34.9951 62.0365C31.3983 60.2519 26.9861 58.73 22.6621 58.73V44.9944C30.1387 44.9944 36.8609 47.5327 41.448 49.8086C43.0393 50.598 44.4358 51.3871 45.5914 52.0884C46.6139 49.906 47.9629 47.8763 49.5758 46.0048L41.7962 33.7971L54.2664 25.699L61.4436 36.9619C64.3994 35.4376 67.5699 34.1727 70.8354 33.1786V21.25Z" fill="#E4695C"/>
<path d="M108.929 52.031C103.767 54.4241 99.2978 58.3578 95.2689 65.9299C95.2689 65.9299 86.33 61.8421 79.0781 59.7174C84.6439 48.4337 91.1205 42.0849 100.671 37.6578C109.91 33.3753 120.932 32.2788 134.025 32.7313L133.405 49.584C121.324 49.1665 114.404 49.4934 108.929 52.031Z" fill="#E4695C"/>
<path d="M47.0372 68.0667C21.3153 91.0096 58.0607 148.367 87.4576 148.367C116.854 148.367 157.333 91.0606 127.878 64.7892C127.198 64.1829 126.603 63.6375 126.051 63.131C123.616 60.8987 121.996 59.4133 117.504 56.7422C108.464 56.7422 103.017 65.7844 100.537 71.2931C100.411 71.5729 100.255 71.8339 100.075 72.0734L94.3585 87.9776L92.2983 95.3733C92.0809 96.1542 92.1375 96.9858 92.4595 97.7299L94.8657 103.291L107.325 101.845L108.142 108.881L96.4237 110.241L97.1851 121.404L90.1184 121.886L89.1682 107.961L85.9587 100.543C84.9929 98.3107 84.8222 95.8149 85.4746 93.4725L85.5362 93.2515L78.3325 96.5091L73.6224 108.415L67.0356 105.81L70.766 96.3805L59.3955 93.7016L61.0197 86.807L75.2059 90.1493L88.156 84.2925L92.5108 72.1782C81.2908 66.9068 58.2498 58.0654 47.0372 68.0667Z" fill="#E4695C"/>
</svg>
