<svg width="15" height="19" viewBox="0 0 15 19" fill="none" xmlns="http://www.w3.org/2000/svg">
<path d="M3.75 15.5483H11.25V14.4928H3.75V15.5483ZM3.75 12.7891H11.25V11.7336H3.75V12.7891ZM7.5 9.79555C8.59643 8.82092 9.49536 8.03278 10.1968 7.43111C10.8989 6.83015 11.25 6.10111 11.25 5.244C11.25 4.74578 11.0729 4.32215 10.7186 3.97311C10.3643 3.62407 9.93428 3.45026 9.42857 3.45167C8.94357 3.45167 8.57178 3.56039 8.31321 3.77783C8.05393 3.99457 7.78286 4.2757 7.5 4.62122C7.21714 4.27641 6.94607 3.99528 6.68678 3.77783C6.42821 3.56039 6.05643 3.45167 5.57143 3.45167C5.06571 3.45167 4.63571 3.62618 4.28143 3.97522C3.92714 4.32426 3.75 4.74789 3.75 5.24611C3.75 6.10252 4.0875 6.81854 4.7625 7.39417C5.4375 7.96909 6.35 8.77026 7.5 9.79767M13.2686 19H1.73143C1.23786 19 0.826071 18.8374 0.496071 18.5123C0.166071 18.1872 0.000714286 17.7815 0 17.2953V1.70472C0 1.21917 0.165357 0.813833 0.496071 0.488722C0.826785 0.163611 1.23857 0.000703704 1.73143 0H13.2696C13.7625 0 14.1743 0.162907 14.505 0.488722C14.8357 0.814537 15.0007 1.22022 15 1.70578V17.2953C15 17.7808 14.835 18.1865 14.505 18.5123C14.175 18.8381 13.7629 19.0007 13.2686 19Z" fill="#003B73"/>
</svg>
